PathFileType	4	(X/Y/Z)	s01c0201.trc
DataRate	CameraRate	NumFrames	NumMarkers	Units	OrigDataRate	OrigDataStartFrame	OrigNumFrames
200	200	7	48	mm	200	500	2000
Frame#	Time	racr			lacr			c7			jug			rlel			rdr			llel			ldr			s2			lic			ric			lasi			rasi			rpsi			lpsi			rgt			lgt			rth1			rth2			rth3			rth4			rlfc			rsh1			rsh2			rsh3			rsh4			rlmal			rmmal			rcal			rtoe			rmt5			lth1			lth2			lth4			lth3			llfc			lsh1			lsh2			lsh3			lsh4			llmal			lmmal			lcal			ltoe			lmt5			SBIKE			LBIKE			RBIKE			
		X1	Y1	Z1	X2	Y2	Z2	X3	Y3	Z3	X4	Y4	Z4	X5	Y5	Z5	X6	Y6	Z6	X7	Y7	Z7	X8	Y8	Z8	X9	Y9	Z9	X10	Y10	Z10	X11	Y11	Z11	X12	Y12	Z12	X13	Y13	Z13	X14	Y14	Z14	X15	Y15	Z15	X16	Y16	Z16	X17	Y17	Z17	X18	Y18	Z18	X19	Y19	Z19	X20	Y20	Z20	X21	Y21	Z21	X22	Y22	Z22	X23	Y23	Z23	X24	Y24	Z24	X25	Y25	Z25	X26	Y26	Z26	X27	Y27	Z27	X28	Y28	Z28	X29	Y29	Z29	X30	Y30	Z30	X31	Y31	Z31	X32	Y32	Z32	X33	Y33	Z33	X34	Y34	Z34	X35	Y35	Z35	X36	Y36	Z36	X37	Y37	Z37	X38	Y38	Z38	X39	Y39	Z39	X40	Y40	Z40	X41	Y41	Z41	X42	Y42	Z42	X43	Y43	Z43	X44	Y44	Z44	X45	Y45	Z45	X46	Y46	Z46	X47	Y47	Z47	X48	Y48	Z48	
500	2.5000	485.029753	1289.120851	-80.391914	497.353881	1269.979015	-420.151480	452.460995	1377.929384	-247.465660	452.431877	1211.835743	-246.636502	478.354785	1020.949613	29.910589	678.939630	893.801928	-65.248764	470.750434	1017.377474	-560.235745	661.865539	888.818726	-455.740329	-75.895065	1176.665307	-261.924724	98.268611	1187.144585	-433.583450	77.053431	1180.691556	-99.103874	97.613956	1131.721863	-412.429669	106.778770	1138.907738	-132.850053	-47.934220	1216.769196	-210.588674	-46.109892	1218.519198	-315.415699	38.584295	1088.389348	-71.395842	32.470009	1043.565257	-454.198664	158.525373	1032.731601	-66.871381	238.554882	1014.109337	-75.767727	324.332734	987.791774	-89.150486	252.297250	1066.476920	-93.280445	411.872659	927.634643	-117.520328	352.148812	833.847785	-84.979614	310.457453	759.502217	-85.005020	258.952659	687.236546	-93.148347	349.833057	735.029304	-123.447475	186.299206	575.640981	-106.690372	222.104954	583.551737	-190.901662	132.426984	540.781144	-160.166173	400.807709	510.911571	-139.817483	294.698004	485.743548	-71.531779	84.613475	920.418603	-455.844942	144.852257	855.068725	-452.933910	185.545472	890.767660	-450.674286	195.629315	789.252356	-430.336697	236.698345	680.960877	-404.030015	177.265826	588.782582	-445.915285	151.778241	506.275033	-440.852665	123.984480	425.396814	-429.822314	204.036982	492.282893	-411.177629	84.582278	302.830470	-416.164469	114.296585	300.382938	-338.450750	33.103516	285.910803	-374.774973	276.954110	149.957796	-377.432942	173.456212	174.103600	-443.486818	-228.571076	891.602912	-251.959614	-21.394104	80.882237	-454.110561	-21.391021	80.463708	-53.882098	
501	2.5050	484.010895	1287.481099	-79.036887	498.321869	1268.540917	-418.180876	452.275010	1376.394345	-246.139943	452.071540	1210.238596	-245.401744	477.551388	1019.349074	31.027671	678.396389	893.701007	-65.017638	471.207025	1016.691828	-560.072461	662.235189	888.584789	-455.471204	-76.108695	1176.530103	-262.414919	97.472964	1186.675926	-434.136129	76.822344	1180.275492	-99.497631	96.971530	1131.104214	-413.002802	106.680152	1138.446572	-133.183238	-48.063828	1216.718613	-211.169864	-46.419627	1218.318395	-315.897686	38.364108	1087.918219	-71.804285	31.996322	1042.680135	-454.465509	158.018173	1030.925614	-67.670457	237.915430	1011.678727	-76.438407	323.499808	984.614138	-90.204705	252.177643	1063.889691	-93.958001	410.969325	922.848185	-118.688066	351.664535	827.734838	-85.699811	311.282528	752.721268	-85.795828	261.053708	679.539543	-93.796079	351.051640	729.042783	-124.392970	190.808959	567.647922	-107.020440	226.062996	576.235134	-191.673469	137.044415	531.701724	-159.986721	406.528654	509.580759	-139.680398	301.262464	481.180914	-71.435951	85.472844	919.880642	-455.342205	146.685116	855.389452	-452.044473	186.828584	891.619513	-449.537188	198.332138	790.293358	-429.233008	239.167394	682.051556	-402.953750	178.328444	590.741632	-444.916772	151.126724	508.676310	-439.914776	121.623239	428.433885	-428.922237	202.775388	493.729080	-409.524340	78.391525	307.291339	-415.023229	108.609506	304.107923	-337.451707	26.885742	290.465974	-373.161236	269.425265	152.764590	-377.727542	165.793303	177.890834	-443.022591	-228.500894	891.574948	-252.041044	-21.388330	80.803768	-454.121502	-21.375013	80.438696	-53.901657	
502	2.5100	483.062627	1285.796162	-77.804446	499.250388	1267.089092	-416.216301	452.191727	1374.726647	-244.917970	451.601919	1208.204815	-244.674744	476.734881	1017.787457	32.095819	677.851319	893.518036	-64.788600	471.485969	1015.828114	-559.939151	662.102619	888.165490	-455.603840	-76.381383	1176.208329	-262.950361	97.091715	1186.174782	-435.118989	76.658188	1179.681262	-99.898626	96.298455	1130.324281	-413.554874	106.652007	1138.068526	-133.905932	-48.205615	1216.503264	-211.801303	-46.727716	1217.987153	-316.427328	38.237452	1087.118048	-72.152585	31.648917	1041.546870	-454.756329	157.665881	1029.015803	-68.476521	237.342758	1009.142216	-77.035776	322.712719	981.263758	-91.206965	252.152597	1061.150783	-94.643050	409.978085	917.841328	-119.822405	351.220716	821.078777	-86.456109	312.145273	745.407989	-86.805687	263.345840	671.322810	-94.505813	352.195932	722.533008	-125.599716	195.428287	559.569885	-107.439495	230.230584	568.790039	-192.419858	141.821923	522.440096	-159.996868	412.232574	507.724030	-139.600954	307.613586	476.324111	-71.368045	86.361375	919.223874	-454.896766	148.538580	855.529390	-451.094956	188.034153	892.304202	-448.251408	201.084779	791.168900	-428.195587	241.778600	683.029031	-402.043155	179.622220	592.627417	-444.061324	150.582509	511.125689	-439.140292	119.197284	431.640353	-428.026198	201.363156	495.239792	-407.689043	72.314449	312.032099	-413.813419	102.368624	308.454115	-335.870912	20.599499	295.303876	-371.472028	262.005464	155.961780	-378.060741	158.080014	182.040452	-442.563232	-228.435604	891.545698	-252.163250	-21.367795	80.766770	-454.146188	-21.684882	80.471401	-54.020802	
503	2.5150	482.139490	1284.078447	-76.659350	500.129453	1265.622355	-414.347588	452.161034	1372.956141	-243.846029	451.189215	1206.276619	-243.425964	475.876883	1016.101273	33.164606	677.345697	893.262374	-64.606112	471.613002	1014.851506	-559.830220	661.734076	887.682413	-455.722588	-76.698787	1175.751935	-263.443079	95.802471	1185.328021	-435.422730	76.499192	1178.843013	-100.420236	95.667288	1129.381686	-414.100581	106.564039	1137.405906	-134.337133	-48.362682	1216.163497	-212.449306	-47.030002	1217.529891	-316.988479	38.091813	1086.157837	-72.501607	31.385232	1040.303597	-455.062936	157.270228	1027.067453	-69.278684	236.738188	1006.586762	-77.709351	322.129891	977.797446	-92.855133	252.097385	1058.387314	-95.357509	408.882759	912.549391	-120.921487	350.845394	814.016800	-87.175668	313.223418	737.687003	-87.774433	265.790483	662.706869	-95.346902	353.468027	715.702618	-126.946758	200.148409	551.460209	-107.901209	234.515611	561.283447	-193.190172	147.534265	512.884757	-160.751566	417.826407	505.149442	-139.601244	313.966436	471.217576	-71.501711	87.276013	918.480077	-454.537483	150.315611	855.524110	-450.307971	189.234572	892.796610	-446.974669	203.543356	791.763900	-427.254641	244.478659	683.984162	-401.307188	181.045578	594.398294	-443.263948	150.011445	513.577848	-438.301793	116.712647	435.018906	-427.003299	200.094446	496.804041	-406.060249	66.371934	317.052600	-412.561623	96.411131	313.073994	-334.339669	14.112690	300.405936	-369.685923	254.723159	159.751591	-378.504379	150.531151	186.583223	-442.022231	-228.404739	891.521365	-252.281532	-21.375232	80.695221	-454.159547	-21.399618	80.393933	-53.930288	
504	2.5200	481.244732	1282.362831	-75.498204	500.936265	1264.054805	-412.544003	452.191117	1371.112731	-243.018271	450.755001	1204.183281	-242.108053	475.170312	1014.350243	34.056295	676.888072	892.957348	-64.562906	471.535068	1013.845651	-559.836495	661.366262	887.277598	-455.779488	-76.996232	1175.180438	-263.921405	95.522221	1184.432785	-436.598568	76.399131	1177.880640	-100.872528	95.074613	1128.263907	-414.621027	106.504012	1136.583689	-134.706835	-48.540803	1215.702001	-213.006225	-47.330632	1216.962913	-317.560295	37.927592	1084.912774	-72.910852	31.249575	1038.832075	-455.286775	156.975039	1025.152073	-70.093144	236.335320	1003.858203	-78.383911	321.371169	974.266933	-93.584680	252.188531	1055.407567	-96.149133	407.719420	907.184425	-122.030794	350.710792	806.674223	-87.870838	314.487418	729.664738	-88.818017	268.487192	653.857130	-96.272083	354.890916	708.705650	-128.442677	204.854394	543.258928	-108.462479	238.997158	553.402524	-193.940636	153.027766	503.447798	-161.271660	423.332284	502.065488	-139.624780	320.198023	465.710087	-71.600170	88.214461	917.682133	-454.286375	152.042786	855.323749	-449.616206	190.458423	893.132352	-445.803818	205.839605	792.184986	-426.524027	247.302251	684.893436	-400.760966	182.573018	596.278205	-442.262822	149.438631	516.199498	-437.470511	114.108060	438.590111	-425.937459	198.751554	498.426115	-404.623112	60.593336	322.354150	-411.301786	90.851886	317.678863	-332.871613	7.862112	305.810109	-367.837462	247.703866	163.919606	-378.869350	143.084486	191.524121	-441.533771	-228.398126	891.477733	-252.401188	-21.388682	80.628833	-454.148411	-21.405546	80.371647	-53.953769	
505	2.5250	480.352668	1280.712652	-74.483686	501.703352	1262.480300	-410.874129	452.233664	1369.273347	-242.391813	450.347857	1202.161155	-240.865643	474.424854	1012.715374	34.982724	676.500524	892.626304	-64.642126	471.385115	1012.742091	-559.881496	661.136085	887.037834	-455.814909	-77.436124	1174.570964	-264.481503	94.546967	1183.271732	-437.018466	76.266760	1176.748782	-101.397349	94.532027	1126.978778	-415.113713	106.399688	1135.692133	-134.956387	-48.667149	1215.068470	-213.674569	-47.631165	1216.306262	-318.140117	38.080143	1083.123320	-74.253358	31.180112	1037.262768	-455.578322	156.795088	1023.175531	-70.780782	236.203647	1001.009193	-79.758259	320.540299	970.711012	-94.222450	252.299508	1052.494490	-97.059092	406.401807	901.729889	-122.915703	350.707816	799.576095	-88.445070	316.213435	721.675348	-89.776946	271.599131	645.067193	-97.205353	356.534383	701.806666	-130.083449	209.608018	535.037679	-108.877416	243.430450	545.601209	-194.595388	158.559607	494.201888	-161.787349	428.767147	498.324968	-139.689541	326.369287	459.830745	-71.771975	89.174330	916.862083	-454.157085	153.685476	855.083646	-449.213228	191.654773	893.323457	-444.725045	208.027573	792.447615	-426.042354	250.266408	685.742211	-400.430525	183.897059	598.223276	-441.659694	148.784671	519.001956	-436.683573	111.340422	442.466695	-424.842653	197.410734	500.026492	-403.242748	55.014289	327.938585	-410.073420	85.189314	322.888087	-331.180762	1.812329	311.542863	-365.918747	240.822282	168.505447	-379.420918	135.730316	196.872150	-441.335466	-228.394056	891.438214	-252.491494	-21.400599	80.585321	-454.161965	-21.399177	80.362460	-53.963973	
506	2.5300	479.452277	1279.036312	-73.473196	502.420083	1260.874233	-409.345583	452.315630	1367.423005	-241.922990	449.994802	1200.091152	-239.706411	473.880124	1011.050379	35.657428	676.185617	892.202182	-64.855224	471.054026	1011.727058	-559.963896	660.898459	886.882592	-455.791425	-77.812636	1173.744904	-264.871140	94.273420	1181.946169	-438.157338	76.129053	1175.529853	-101.872526	94.041838	1125.551692	-415.591797	106.277068	1134.972034	-135.158089	-48.800537	1214.296923	-214.190473	-47.933831	1215.568929	-318.719252	38.031197	1081.667479	-74.658534	31.226207	1035.622329	-455.852656	156.780160	1021.383777	-71.257035	235.867419	998.296066	-80.433974	319.827224	967.128366	-94.765418	252.538560	1049.508280	-97.957097	405.095569	896.126468	-123.856478	351.288935	792.394448	-89.236119	318.267887	714.090060	-90.851066	275.277118	636.674090	-98.127007	358.577592	695.346246	-131.694449	214.307157	526.710859	-109.142789	247.979200	537.697482	-195.055348	163.995632	484.950287	-162.194114	433.932238	494.145720	-139.715076	332.318483	453.689371	-71.907749	90.152924	916.048572	-454.154245	155.287026	854.813145	-449.024946	192.840569	893.444775	-443.769352	209.921764	792.553909	-425.837841	253.318856	686.517927	-400.334588	185.126864	600.237954	-441.133970	147.940893	522.044965	-435.848642	108.603411	446.430932	-423.716945	195.999266	502.033076	-402.178596	49.673445	333.807659	-408.918600	80.168469	327.983734	-329.720057	-3.968539	317.560339	-363.994169	234.322125	173.444916	-379.827699	128.701350	202.359034	-440.793907	-228.406204	891.417121	-252.589192	-21.417734	80.526370	-454.164314	-21.416308	80.369890	-53.985837	
